<svg xmlns="http://www.w3.org/2000/svg" width="18.876" height="18.876" viewBox="0 0 18.876 18.876">
  <path id="Icon_metro-copyright" data-name="Icon metro-copyright" d="M18.9,16.033v1.34a1.556,1.556,0,0,1-.449,1.094,2.98,2.98,0,0,1-1.155.743,8.447,8.447,0,0,1-1.45.4,8.067,8.067,0,0,1-1.444.135A5.681,5.681,0,0,1,10.2,18.036a5.8,5.8,0,0,1-1.69-4.252,5.711,5.711,0,0,1,5.837-5.837A8.673,8.673,0,0,1,15.271,8a7.93,7.93,0,0,1,1.143.221,5.862,5.862,0,0,1,1.137.418,2.448,2.448,0,0,1,.848.694,1.58,1.58,0,0,1,.344,1v1.34a.174.174,0,0,1-.2.2H17.1a.174.174,0,0,1-.2-.2v-.86q0-.528-.8-.83a4.784,4.784,0,0,0-1.69-.3A3.734,3.734,0,0,0,11.6,10.8a4.022,4.022,0,0,0-1.088,2.919,4.329,4.329,0,0,0,1.124,3.066A3.744,3.744,0,0,0,14.5,18a5.207,5.207,0,0,0,1.7-.295q.86-.295.86-.811v-.86a.191.191,0,0,1,.055-.141.177.177,0,0,1,.129-.055h1.462a.2.2,0,0,1,.135.055.182.182,0,0,1,.061.141ZM14.208,5.98a7.645,7.645,0,0,0-3.054.627A7.756,7.756,0,0,0,6.97,10.791a7.753,7.753,0,0,0,0,6.108,7.756,7.756,0,0,0,4.184,4.184,7.753,7.753,0,0,0,6.108,0A7.756,7.756,0,0,0,21.446,16.9a7.753,7.753,0,0,0,0-6.108,7.756,7.756,0,0,0-4.184-4.184,7.645,7.645,0,0,0-3.054-.627Zm9.438,7.865a9.233,9.233,0,0,1-1.266,4.738,9.4,9.4,0,0,1-3.435,3.435,9.233,9.233,0,0,1-4.738,1.266A9.233,9.233,0,0,1,9.47,22.017a9.4,9.4,0,0,1-3.435-3.435A9.233,9.233,0,0,1,4.77,13.845,9.233,9.233,0,0,1,6.036,9.108,9.4,9.4,0,0,1,9.47,5.673a9.233,9.233,0,0,1,4.738-1.266,9.233,9.233,0,0,1,4.738,1.266A9.4,9.4,0,0,1,22.38,9.108,9.233,9.233,0,0,1,23.646,13.845Z" transform="translate(-4.77 -4.407)" fill="#f5eded" opacity="0.6"/>
</svg>
