<svg xmlns="http://www.w3.org/2000/svg" width="78.441" height="26.834" viewBox="0 0 78.441 26.834">
  <g id="Icon_simple-facebook_2" data-name="Icon simple-facebook_2" transform="translate(0.001 -0.006)">
    <path id="Icon_simple-facebook" data-name="Icon simple-facebook" d="M29.89,17.61A13.5,13.5,0,1,0,14.28,30.92V21.5H10.85V17.61h3.43v-3c0-3.38,2-5.25,5.1-5.25a21.86,21.86,0,0,1,3,.27V13H20.7a1.94,1.94,0,0,0-2.19,1.67,2,2,0,0,0,0,.43v2.5h3.74l-.6,3.9H18.5v9.42A13.5,13.5,0,0,0,29.89,17.61Z" transform="translate(-2.89 -4.08)" fill="#fff"/>
    <path id="Path_7" data-name="Path 7" d="M79.8,6.47H31.41A1.53,1.53,0,0,0,29.89,8V27a1.52,1.52,0,0,0,1.52,1.52H79.8A1.53,1.53,0,0,0,81.33,27V8A1.54,1.54,0,0,0,79.8,6.47ZM46.67,22.4H38.74V11.19h2.08v9.45h5.85Zm3.73,0H48.32V11.19H50.4Zm8.31,0H56.66l-4.9-11.21H54l3.73,8.65,3.76-8.65h2.08Zm14.46,0h-8.4V11.19H73v1.75H66.9v2.91h5.41v1.71H66.85v3.09h6.32Z" transform="translate(-2.89 -4.08)" fill="#fff"/>
  </g>
</svg>
