<svg xmlns="http://www.w3.org/2000/svg" width="31.518" height="30" viewBox="0 0 31.518 30">
  <path id="Icon_awesome-instagram" data-name="Icon awesome-instagram" d="M15.757,9.546a7.88,7.88,0,0,0-8.079,7.692,7.88,7.88,0,0,0,8.079,7.692,7.88,7.88,0,0,0,8.079-7.692A7.88,7.88,0,0,0,15.757,9.546Zm0,12.692a5.14,5.14,0,0,1-5.252-5,5.136,5.136,0,0,1,5.252-5,5.136,5.136,0,0,1,5.252,5,5.14,5.14,0,0,1-5.252,5ZM26.051,9.231a1.887,1.887,0,1,1-1.884-1.794A1.837,1.837,0,0,1,26.051,9.231ZM31.4,11.052a8.646,8.646,0,0,0-2.545-6.286,9.655,9.655,0,0,0-6.6-2.423c-2.6-.141-10.4-.141-13,0a9.642,9.642,0,0,0-6.6,2.417A8.675,8.675,0,0,0,.105,11.046c-.148,2.477-.148,9.9,0,12.378a8.646,8.646,0,0,0,2.545,6.286,9.667,9.667,0,0,0,6.6,2.423c2.6.141,10.4.141,13,0a9.591,9.591,0,0,0,6.6-2.423A8.7,8.7,0,0,0,31.4,23.423c.148-2.477.148-9.894,0-12.371ZM28.041,26.081a5.2,5.2,0,0,1-3,2.852c-2.074.783-7,.6-9.288.6s-7.221.174-9.288-.6a5.2,5.2,0,0,1-3-2.852c-.823-1.975-.633-6.661-.633-8.843s-.183-6.875.633-8.843a5.2,5.2,0,0,1,3-2.852c2.074-.783,7-.6,9.288-.6s7.221-.174,9.288.6a5.2,5.2,0,0,1,3,2.852c.823,1.975.633,6.661.633,8.843S28.863,24.113,28.041,26.081Z" transform="translate(0.005 -2.238)" fill="#fff"/>
</svg>
