<svg id="Mixlr_LogoLockup_Horiz_Red_RGB" xmlns="http://www.w3.org/2000/svg" width="84.813" height="26.5" viewBox="0 0 84.813 26.5">
  <path id="Path_8" data-name="Path 8" d="M408.965,179.1a2.092,2.092,0,0,0-.853.938,1.648,1.648,0,0,0,.367,1.705,1.651,1.651,0,1,0,2.04-2.558,1.16,1.16,0,0,0-.826-.19A1.688,1.688,0,0,0,408.965,179.1Z" transform="translate(-396.666 -179)" fill="#fff" opacity="0.5"/>
  <path id="Path_9" data-name="Path 9" d="M498.274,200.268a1.669,1.669,0,0,0-1.023,2.053,1.733,1.733,0,0,0,1.574,1.161,1.656,1.656,0,0,0,.492-3.24A1.312,1.312,0,0,0,498.274,200.268Z" transform="translate(-479.973 -198.759)" fill="#fff" opacity="0.5"/>
  <path id="Path_10" data-name="Path 10" d="M320.261,204.189a1.663,1.663,0,0,0,.912,3.155,1.889,1.889,0,0,0,1.253-.813,2,2,0,0,0,.112-1.482,2.082,2.082,0,0,0-.925-.931A1.923,1.923,0,0,0,320.261,204.189Z" transform="translate(-313.773 -202.386)" fill="#fff"/>
  <path id="Path_11" data-name="Path 11" d="M1335,267v8h3.28V259H1335Z" transform="translate(-1262.846 -253.752)" fill="#fff"/>
  <path id="Path_12" data-name="Path 12" d="M564.194,264.171a1.731,1.731,0,0,0-.99,1.692,1.883,1.883,0,0,0,.984,1.345,1.974,1.974,0,0,0,1.384-.026,1.7,1.7,0,0,0,.781-2.237A1.62,1.62,0,0,0,564.194,264.171Z" transform="translate(-541.663 -258.438)" fill="#fff" opacity="0.5"/>
  <path id="Path_13" data-name="Path 13" d="M411.314,267.359a1.73,1.73,0,0,0-1.22,1.437,1.446,1.446,0,0,0,.466,1.292,1.427,1.427,0,0,0,.7.453,1.375,1.375,0,0,0,1.082-.026,1.622,1.622,0,0,0,1-2.125,2.218,2.218,0,0,0-.853-.905A2.067,2.067,0,0,0,411.314,267.359Z" transform="translate(-398.602 -261.528)" fill="#fff"/>
  <path id="Path_14" data-name="Path 14" d="M1040.342,269.179a1.987,1.987,0,0,0-1.207,1.168,1.883,1.883,0,0,0,1.161,2.4,1.814,1.814,0,0,0,2.007-.518,2.062,2.062,0,0,0,.413-.636,2.333,2.333,0,0,0-.059-1.364,2.074,2.074,0,0,0-1.1-1.01A2.767,2.767,0,0,0,1040.342,269.179Z" transform="translate(-986.292 -263.217)" fill="#fff"/>
  <path id="Path_15" data-name="Path 15" d="M257.2,270.173a1.721,1.721,0,0,0-1.2,1.633,1.911,1.911,0,0,0,.505,1.161,1.691,1.691,0,0,0,1.758.361,1.644,1.644,0,0,0,.492-2.781A1.623,1.623,0,0,0,257.2,270.173Z" transform="translate(-254.622 -264.138)" fill="#fff"/>
  <path id="Path_16" data-name="Path 16" d="M773,279.289v7.583h3.608V279.84l.374.354c.21.19.63.584.938.872s.735.689.951.886.6.544.853.787a6.139,6.139,0,0,0,.544.485c.085.052.564-.367,2.827-2.434l1.023-.938.02,3.509.013,3.509h3.608V279.3c0-4.165-.02-7.576-.039-7.576-.046,0-3.8,3.542-6.8,6.422l-.505.492-.249-.23c-.131-.131-.466-.439-.735-.7s-1.036-.971-1.705-1.6c-1.174-1.1-3.667-3.431-4.375-4.086L773,271.7Z" transform="translate(-737.71 -265.619)" fill="#fff"/>
  <path id="Path_17" data-name="Path 17" d="M489.3,310.075a1.711,1.711,0,0,0-1.115,1.089,2.485,2.485,0,0,0-.052.682,1.643,1.643,0,0,0,2.388,1.3,1.646,1.646,0,0,0,.374-2.676A1.7,1.7,0,0,0,489.3,310.075Z" transform="translate(-471.525 -301.423)" fill="#fff"/>
  <path id="Path_18" data-name="Path 18" d="M334.789,313.171a1.539,1.539,0,0,0-.761.781,1.557,1.557,0,0,0,.335,1.843,1.522,1.522,0,0,0,2.171.164,1.635,1.635,0,0,0-1-2.958A1.222,1.222,0,0,0,334.789,313.171Z" transform="translate(-327.377 -304.21)" fill="#fff"/>
  <path id="Path_19" data-name="Path 19" d="M1423.169,342.086a4.108,4.108,0,0,0-.662.289,4.5,4.5,0,0,0-1.148,1.194c-.112.223-.112.223-.092-.558l.026-.781-1.62-.02c-.892-.013-1.633-.007-1.646.007s-.026,2.342-.026,5.169v5.136l1.627-.013,1.62-.02.039-2.886a30.758,30.758,0,0,1,.118-3.168,2.012,2.012,0,0,1,2.191-1.574,4.582,4.582,0,0,1,1.528.164c.079.026.092-.21.092-1.476V342.04l-.144-.039A6.038,6.038,0,0,0,1423.169,342.086Z" transform="translate(-1340.402 -331.27)" fill="#fff"/>
  <path id="Path_20" data-name="Path 20" d="M1043.026,345.676c-.013.013-.026,2.342-.026,5.169v5.136h3.28l-.013-5.156-.02-5.149-1.594-.013C1043.774,345.657,1043.039,345.663,1043.026,345.676Z" transform="translate(-990 -334.729)" fill="#fff"/>
  <path id="Path_21" data-name="Path 21" d="M1121.7,345.664c.131.21.866,1.233,2.125,2.985.544.754,1.036,1.443,1.089,1.522.092.131.079.171-.184.525-.833,1.128-3.194,4.3-3.444,4.631a2.182,2.182,0,0,0-.289.439,12.25,12.25,0,0,0,1.889.066h1.883l.374-.544c.2-.3.728-1.05,1.161-1.673l.781-1.128.19.262c.1.138.6.892,1.1,1.673l.918,1.41h1.922a16.56,16.56,0,0,0,1.915-.052,10.606,10.606,0,0,0-.643-.931c-.354-.485-1-1.371-1.423-1.968s-1.023-1.417-1.325-1.83l-.538-.741.289-.407c.157-.216.4-.564.538-.761s.741-1.076,1.345-1.948,1.1-1.607,1.1-1.64a14.52,14.52,0,0,0-1.784-.039c-2.02.02-1.791-.046-2.178.61-.472.781-1.259,2-1.305,2.02a9.962,9.962,0,0,1-.879-1.246c-.453-.7-.846-1.286-.866-1.318s-.905-.052-1.961-.066l-1.909-.013Z" transform="translate(-1062.883 -334.579)" fill="#fff"/>
  <path id="Path_22" data-name="Path 22" d="M590.223,352.233a1.927,1.927,0,0,0-.99.971,1.662,1.662,0,0,0,3.063,1.286,1.924,1.924,0,0,0-.02-1.417,1.817,1.817,0,0,0-1.01-.84A1.464,1.464,0,0,0,590.223,352.233Z" transform="translate(-565.887 -340.78)" fill="#fff" opacity="0.5"/>
  <path id="Path_23" data-name="Path 23" d="M236.063,359.478a1.68,1.68,0,0,0-.872.7c-.177.236-.19.3-.19.84a1.245,1.245,0,0,0,.472,1.213,1.771,1.771,0,0,0,1.161.479,1.694,1.694,0,0,0,1.646-1.607,1.43,1.43,0,0,0-.387-1.089A1.662,1.662,0,0,0,236.063,359.478Z" transform="translate(-235 -347.553)" fill="#fff"/>
  <path id="Path_24" data-name="Path 24" d="M411.223,359.234a1.7,1.7,0,0,0-1.148,1.384,1.506,1.506,0,0,0,.472,1.318,1.6,1.6,0,0,0,2.46-.079,1.464,1.464,0,0,0,.38-1.214A1.7,1.7,0,0,0,411.223,359.234Z" transform="translate(-398.583 -347.335)" fill="#fff" opacity="0.5"/>
  <path id="Path_25" data-name="Path 25" d="M490.606,398.37a1.689,1.689,0,0,0-.6,2.794,1.572,1.572,0,0,0,1.161.446,1.65,1.65,0,0,0,1.161-2.807A1.679,1.679,0,0,0,490.606,398.37Z" transform="translate(-472.804 -383.9)" fill="#fff"/>
  <path id="Path_26" data-name="Path 26" d="M336.905,401.332a1.67,1.67,0,0,0-1.305,1.653,1.562,1.562,0,0,0,.564,1.22,1.669,1.669,0,0,0,2.237-.039,1.455,1.455,0,0,0,.492-1.318,1.158,1.158,0,0,0-.276-.846A1.734,1.734,0,0,0,336.905,401.332Z" transform="translate(-329.001 -386.711)" fill="#fff"/>
  <path id="Path_27" data-name="Path 27" d="M568.513,441.3a1.756,1.756,0,0,0-.656.426,1.623,1.623,0,0,0-.439,1.555,1.211,1.211,0,0,0,.38.7,1.7,1.7,0,0,0,2.414.072,1.618,1.618,0,0,0,.013-2.309A1.733,1.733,0,0,0,568.513,441.3Z" transform="translate(-545.575 -424.021)" fill="#fff"/>
  <path id="Path_28" data-name="Path 28" d="M414.6,444.251a1.63,1.63,0,0,0-.918.794,1.185,1.185,0,0,0-.177.754,1.4,1.4,0,0,0,.453,1.135,1.656,1.656,0,0,0,2.86-1.135,1.684,1.684,0,0,0-1.187-1.568A1.306,1.306,0,0,0,414.6,444.251Z" transform="translate(-401.791 -426.744)" fill="#fff"/>
  <path id="Path_29" data-name="Path 29" d="M260.862,448.123a2.16,2.16,0,0,0-.826.84,1.717,1.717,0,0,0,.413,1.9,1.637,1.637,0,0,0,2.3-.059,1.66,1.66,0,0,0-.485-2.683A2.259,2.259,0,0,0,260.862,448.123Z" transform="translate(-258.271 -430.367)" fill="#fff"/>
  <path id="Path_30" data-name="Path 30" d="M504.873,507.359a1.727,1.727,0,0,0-1.273,1.614,1.638,1.638,0,0,0,1.653,1.673,1.643,1.643,0,0,0,1.653-1.64,1.594,1.594,0,0,0-.945-1.522A1.818,1.818,0,0,0,504.873,507.359Z" transform="translate(-485.981 -485.785)" fill="#fff"/>
  <path id="Path_31" data-name="Path 31" d="M327.306,511.116a1.661,1.661,0,0,0-1.181,2.119,1.929,1.929,0,0,0,1.036,1.036,1.6,1.6,0,0,0,1.83-.472,1.408,1.408,0,0,0,.4-1.2,1.24,1.24,0,0,0-.282-.794,1.321,1.321,0,0,0-.656-.558A1.6,1.6,0,0,0,327.306,511.116Z" transform="translate(-320.091 -489.28)" fill="#fff"/>
  <path id="Path_32" data-name="Path 32" d="M416.822,533.208a1.642,1.642,0,0,0-1.023,1.542,1.543,1.543,0,0,0,.787,1.43,1.226,1.226,0,0,0,.872.19c.538,0,.584-.013.886-.216a1.581,1.581,0,0,0,.735-1.3,1.52,1.52,0,0,0-.479-1.266A1.7,1.7,0,0,0,416.822,533.208Z" transform="translate(-403.939 -509.869)" fill="#fff"/>
</svg>
