<svg xmlns="http://www.w3.org/2000/svg" width="104.899" height="21" viewBox="0 0 104.899 21">
  <g id="youtube_icon" transform="translate(-1744.101 -3060)">
    <path id="Icon_ionic-logo-youtube" data-name="Icon ionic-logo-youtube" d="M27.366,9.063a4.183,4.183,0,0,0-3.982-4.369C20.4,4.554,17.363,4.5,14.258,4.5H13.29c-3.1,0-6.145.054-9.125.194A4.192,4.192,0,0,0,.188,9.074C.054,10.989-.005,12.9,0,14.82s.054,3.831.183,5.752a4.2,4.2,0,0,0,3.976,4.385c3.132.145,6.344.21,9.61.2q4.907.016,9.61-.2a4.2,4.2,0,0,0,3.982-4.385c.129-1.921.188-3.836.183-5.757Q27.559,11.941,27.366,9.063ZM11.138,20.1V9.525l7.8,5.284Z" transform="translate(1744.102 3055.837)" fill="#fff"/>
    <text id="YouTube" transform="translate(1778 3075)" fill="#fff" font-size="16" font-family="Montserrat-Medium, Montserrat" font-weight="500" letter-spacing="0.009em"><tspan x="0" y="0">YouTube</tspan></text>
  </g>
</svg>
