<svg xmlns="http://www.w3.org/2000/svg" width="24.991" height="24.991" viewBox="0 0 24.991 24.991">
  <path id="Icon_awesome-pause" data-name="Icon awesome-pause" d="M8.033,27.171H2.678A2.678,2.678,0,0,1,0,24.493V4.857A2.678,2.678,0,0,1,2.678,2.18H8.033a2.678,2.678,0,0,1,2.678,2.678V24.493A2.678,2.678,0,0,1,8.033,27.171Zm16.958-2.678V4.857A2.678,2.678,0,0,0,22.314,2.18H16.958a2.678,2.678,0,0,0-2.678,2.678V24.493a2.678,2.678,0,0,0,2.678,2.678h5.355A2.678,2.678,0,0,0,24.991,24.493Z" transform="translate(0 -2.18)" fill="#fff" opacity="0.7"/>
</svg>
