<svg xmlns="http://www.w3.org/2000/svg" width="43.247" height="32.435" viewBox="0 0 43.247 32.435">
  <g id="Icon_ionic-ios-camera" data-name="Icon ionic-ios-camera" transform="translate(-4.5 -7.875)">
    <path id="Path_33" data-name="Path 33" d="M26.909,21.769a6.476,6.476,0,1,1-6.476-6.476A6.476,6.476,0,0,1,26.909,21.769Z" transform="translate(5.691 4.464)" fill="#fff"/>
    <path id="Path_34" data-name="Path 34" d="M44.312,13.281H38.174a1.828,1.828,0,0,1-1.351-.608c-3.2-3.581-4.4-4.8-5.71-4.8H21.483c-1.318,0-2.613,1.216-5.823,4.809a1.793,1.793,0,0,1-1.34.6h-.462v-.9a.9.9,0,0,0-.9-.9H10.03a.9.9,0,0,0-.9.9v.9H8.284A3.652,3.652,0,0,0,4.5,16.738V36.56a3.9,3.9,0,0,0,3.773,3.75H44.312a3.61,3.61,0,0,0,3.435-3.75V16.738A3.357,3.357,0,0,0,44.312,13.281ZM26.574,35.85a9.629,9.629,0,1,1,9.167-9.167A9.638,9.638,0,0,1,26.574,35.85ZM36.935,19.813A1.464,1.464,0,1,1,38.4,18.349,1.461,1.461,0,0,1,36.935,19.813Z" transform="translate(0 0)" fill="#fff"/>
  </g>
</svg>
