<svg xmlns="http://www.w3.org/2000/svg" width="45" height="36" viewBox="0 0 45 36">
  <path id="Icon_awesome-church" data-name="Icon awesome-church" d="M32.657,17.345,24.75,12.6V9h3.375A1.125,1.125,0,0,0,29.25,7.875V5.625A1.125,1.125,0,0,0,28.125,4.5H24.75V1.125A1.125,1.125,0,0,0,23.625,0h-2.25A1.125,1.125,0,0,0,20.25,1.125V4.5H16.875A1.125,1.125,0,0,0,15.75,5.625v2.25A1.125,1.125,0,0,0,16.875,9H20.25v3.6l-7.907,4.745a2.25,2.25,0,0,0-1.093,1.929V36H18V29.25a4.5,4.5,0,0,1,9,0V36h6.75V19.274A2.25,2.25,0,0,0,32.657,17.345ZM0,27.841v7.034A1.125,1.125,0,0,0,1.125,36H9V22.5L1.363,25.772A2.252,2.252,0,0,0,0,27.841Zm43.637-2.069L36,22.5V36h7.875A1.125,1.125,0,0,0,45,34.875V27.841A2.252,2.252,0,0,0,43.637,25.772Z" fill="#c1272d"/>
</svg>
